<?xml version="1.0" encoding="utf-8"?>
<!-- Generator: Adobe Illustrator 23.0.1, SVG Export Plug-In . SVG Version: 6.00 Build 0)  -->
<svg version="1.1" id="bb441d3c-cf2a-489d-ae6b-061a3c0e4b94"
	 xmlns="http://www.w3.org/2000/svg" xmlns:xlink="http://www.w3.org/1999/xlink" x="0px" y="0px" viewBox="0 0 924.3 530.6"
	 style="enable-background:new 0 0 924.3 530.6;" xml:space="preserve">
<style type="text/css">
	.st0{fill:#FCFCFC;}
	.st1{fill:#FFFFFF;}
	.st2{fill:#E6E6E6;}
	.st3{fill:#2F2E41;}
	.st4{fill:#FAFAFC;}
	.st5{fill:#F7F7F7;}
	.st6{fill:#3F3D56;}
</style>
<path class="st0" d="M16.1,159.3c-6.5,2-13.5-1.6-15.6-8.1c-0.7-2.1-0.7-4.3-0.3-6.5C7.5,114.6,35,41.1,135.1,10.2
	C178.4-3.2,220-3.4,258.6,9.5c31.7,10.6,52.8,27.2,62.9,35.2c5.3,4.2,6.2,12,2,17.3c0,0-0.1,0.1-0.1,0.1c-4.3,5.3-12.1,6.2-17.6,2
	C287.6,49.7,232.2,6,142.3,33.8C54.6,60.8,30.8,124.2,24.6,150.1C23.7,154.5,20.4,158,16.1,159.3L16.1,159.3z"/>
<path class="st1" d="M288.9,329.5c-1,0.3-2,0.5-3.1,0.6c-78.2,4.2-127.9-60.7-130-63.4l-0.4-0.6c-1.2-1.9-31.3-47.7-18.1-84.1
	c6.1-16.6,19.5-28.3,40.1-34.6c19.1-5.9,34.8-4.2,48.1,5.4c10.9,7.8,17.9,19.3,24.7,30.5c14.1,23.2,22.8,35,49.6,28.2
	c11.8-3,17.3-12.2,19.8-19.4c6.8-19.5,0.8-46.1-15.1-66.3C284.1,99.5,226.8,56.1,156,77.9c-30.2,9.3-55,27.7-71.5,53.1
	c-13.7,21-21.7,47.1-21.9,71.5c-0.3,45.3,36.9,105,37.2,105.5c3.6,5.8,1.8,13.3-3.9,16.9c0,0,0,0,0,0c0,0-0.1,0-0.1,0.1
	c-5.8,3.6-13.5,1.9-17.2-3.9c-1.7-2.7-41.4-66.3-41-118.7c0.4-56.8,35-124.6,111.2-148.1c35.2-10.9,72.2-9.1,107.1,5.2
	c27,11.1,52,29.6,68.5,50.6c21.1,26.9,28.5,62,18.9,89.5c-6.4,18.3-19.7,30.9-37.3,35.4c-45.9,11.7-63.9-17.7-77-39.2
	c-13.5-22-20.9-32.3-44.2-25.1c-12.8,3.9-20.7,10.3-24,19.4c-4.5,12.4-0.2,28.4,4.1,39.5c0,0.1,0.1,0.2,0.1,0.3
	c5.6,14.2,14.4,26.9,25.6,37.3c18,16.6,51.5,40.3,94.1,38.1c6.8-0.4,12.6,4.7,13,11.5c0,0,0,0.1,0,0.1
	C297.9,322.7,294.3,327.8,288.9,329.5L288.9,329.5z"/>
<path class="st0" d="M194.1,352.8c-3.3,1-6.9,0.6-9.9-1c-38.6-21.8-65.6-51.2-85.1-92.4l-0.1-0.3c-12.3-27.5-19.7-69.4-3.4-104.9
	c12-26.2,34.6-44.6,67.1-54.6c38.4-11.8,74.1-3.1,103.4,25.1c13.3,13,24.2,28.4,32,45.3c2.6,6.4-0.4,13.7-6.8,16.3
	c-6.3,2.6-13.4-0.3-16.2-6.5c-6.6-14.1-15.8-26.9-27-37.8c-22.6-21.5-48.9-27.8-78.1-18.8c-25.3,7.8-42.7,21.6-51.7,41.1
	c-12.9,28-6.2,62.9,3.4,84.5c17.2,36.4,41,62.3,75,81.5c5.9,3.3,8,10.8,4.7,16.7c0,0,0,0,0,0c0,0.1-0.1,0.1-0.1,0.2
	C199.6,349.9,197,351.9,194.1,352.8z"/>
<circle class="st2" cx="198.1" cy="213.8" r="15.9"/>
<path class="st1" d="M485.7,408.5c-0.3,0-0.7,0-1-0.1c-1.7-0.3-3.2-1.2-4.3-2.6l-8.8-11.9c-2.1-2.9-1.5-7,1.4-9.1c0,0,0,0,0,0
	l74.9-55.2c2.9-2.1,7-1.5,9.1,1.4c0,0,0,0,0,0l8.8,11.9c2.1,2.9,1.5,7-1.4,9.1l-74.9,55.2C488.4,408.1,487.1,408.5,485.7,408.5z"/>
<path class="st3" d="M538.9,364l-11.5-15.5c-2-2.7-1.4-6.4,1.3-8.4l43.9-38.4c2.7-2,6.4-1.4,8.4,1.3l21,25c2,2.7,1.4,6.4-1.3,8.4
	l-53.4,28.9C544.6,367.3,540.9,366.7,538.9,364z"/>
<path class="st4" d="M609.4,530.3h-14.8c-3.6,0-6.5-2.9-6.5-6.5v-123c0-3.6,2.9-6.5,6.5-6.5h14.8c3.6,0,6.5,2.9,6.5,6.5v123
	C615.9,527.3,613,530.2,609.4,530.3z"/>
<path class="st5" d="M638.6,530.3h-14.8c-3.6,0-6.5-2.9-6.5-6.5v-123c0-3.6,2.9-6.5,6.5-6.5h14.8c3.6,0,6.5,2.9,6.5,6.5v123
	C645.1,527.3,642.2,530.2,638.6,530.3z"/>
<rect x="452.9" y="528.4" class="st6" width="324" height="2.2"/>
<circle class="st1" cx="610.2" cy="195.7" r="53.5"/>
<path class="st3" d="M693.1,467.2l-31-137.6V297c0-4.4-3.6-8-8-8h-29.7v-20.9c0-4.4-3.6-8-8-8c0,0,0,0,0,0h-16c-4.4,0-8,3.6-8,8
	c0,0,0,0,0,0V289h-29.7c-4.4,0-8,3.6-8,8v171.1c0,1,0.2,2,0.6,3c0.7,3.5,3.8,6.1,7.4,6.2l125.4,4.2
	C695.6,481.7,699,471.9,693.1,467.2z"/>
<path class="st3" d="M610.7,214.8c-3.3-0.1-7.4-0.2-10.6-2.5c-1.9-1.5-3.1-3.7-3.2-6.1c-0.1-1.7,0.6-3.4,1.9-4.5
	c1.7-1.4,4.1-1.7,6.7-1l-2.7-19.7l2-0.3l3.2,23.2l-1.7-0.8c-1.9-0.9-4.6-1.3-6.2,0.1c-0.8,0.7-1.2,1.8-1.2,2.9
	c0.1,1.8,1,3.4,2.4,4.5c2.5,1.8,5.7,2,9.5,2.1L610.7,214.8z"/>
<rect x="582.2" y="182.7" class="st3" width="10.8" height="2"/>
<rect x="616.2" y="182.7" class="st3" width="10.8" height="2"/>
<path class="st1" d="M563.3,161.1c-9.5-5.8-14-16.7-14-27.5c0-11.7,5.1-22.7,14-30.3c9.8-8.5,22.8-12.6,35.6-13.7
	c15.4-1.3,30.7,2.1,45.4,6.4c15.8,4.6,31.2,10.3,47.3,13.5c15.7,3.1,31.4,3.4,46.8-1.1c14.2-4.2,28.7-11.5,43.9-10.2
	c13.1,1.1,23.1,9.8,29.8,20.6c13.3,21.4,14.4,50.2,33.5,68c8.3,7.7,19.1,11.2,29.8,13.8c10.3,2.5,21.4,4.1,30.8,9.2
	c10.2,5.4,16.3,15.6,14.7,27.4c-1.8,13.3-11.3,24.7-21.7,32.5c-22.2,16.4-50.6,22-77.4,15.1c-27.6-7.3-50.1-28.7-79.5-30.1
	c-16.4-0.7-32.6,3.7-49,3c-11.4-0.5-23.6-4.7-31.6-13.2c-3.8-4-6.2-9.1-6.8-14.5c-0.2-1.9-3.2-1.9-3,0c1.1,12,9.9,20.8,20.4,25.6
	c5.5,2.5,11.4,4.2,17.5,4.8c8,0.9,16.2,0,24.2-0.8c8.5-0.9,16.9-2.1,25.4-2c7.8,0.1,15.5,1.5,22.8,4.1c14.1,4.8,26.8,12.9,40.3,19.1
	c13,6.1,26.7,9.8,41.1,9.9c13.9,0.1,27.7-2.9,40.4-8.7c12.5-5.7,24.2-14.2,32-25.6c7.3-10.7,11.1-24.8,4.6-36.8
	c-5.1-9.4-14.9-14.2-24.8-17.1c-11-3.2-22.4-4.7-33.1-8.8c-5.6-2-10.8-5.1-15.2-9.1c-4.7-4.6-8.6-10-11.5-15.9
	c-6.1-12-9.3-25.1-14.4-37.5c-4.8-11.5-11.3-23-21.9-30.1c-5.7-3.8-12.3-5.9-19.1-6.2c-7.5-0.3-15,1.4-22.1,3.6
	c-7.6,2.3-14.9,5.2-22.6,7.3c-8,2.2-16.3,3.2-24.7,2.9c-17.1-0.6-33.7-5.6-49.9-10.8c-28.4-9-60-18.6-88.5-4.8
	c-11.1,5.4-20.5,14.4-24.5,26.3c-3.5,10.5-3,22.8,2.4,32.6c2.6,4.7,6.3,8.6,10.9,11.3C563.5,164.7,565,162.1,563.3,161.1
	L563.3,161.1z"/>
<path class="st1" d="M646.1,428.6h-14.8c-3.6,0-6.5-2.9-6.5-6.5v-85.3c0-3.6,2.9-6.5,6.5-6.5h14.8c3.6,0,6.5,2.9,6.5,6.5v85.3
	C652.6,425.7,649.7,428.6,646.1,428.6z"/>
<path class="st3" d="M589.1,147.9c1,7,7.4,11.8,14.4,10.8c2.8-0.4,5.3-1.7,7.3-3.6l-2.5-0.7c4.3,10.9,16.6,16.3,27.5,12
	c3.9-1.5,7.3-4.2,9.7-7.6c1.1-1.6-1.5-3.1-2.6-1.5c-5.8,8.2-17.2,10.1-25.4,4.2c-2.8-2-5-4.7-6.3-7.9c-0.2-0.8-1.1-1.3-1.9-1
	c-0.2,0.1-0.4,0.2-0.6,0.4c-3.8,3.8-10,3.9-13.8,0.1c-1.6-1.6-2.6-3.7-2.8-5.9C591.7,145.2,588.9,146,589.1,147.9L589.1,147.9z"/>
<path id="f6ad8881-531f-450f-af8c-ee430f91c944" class="st6" d="M494.6,360.9l-0.3,0.2l-5.8-8.6c-1.9-2.7-5.6-3.5-8.3-1.6l0,0l0,0
	L462,363.2c-2.7,1.9-3.5,5.6-1.6,8.3l0,0l31.9,47c1.9,2.7,5.6,3.5,8.3,1.6l0,0l0,0l18.1-12.3c2.7-1.9,3.5-5.6,1.6-8.3l0,0l0,0
	l-21.9-32.3l0.3-0.2L494.6,360.9z"/>
<path id="fc886b53-8f7f-459a-8f46-dc88972f03c0" class="st1" d="M481.5,353.2l-2.3,1.6c0.9,0.6,1.2,1.9,0.6,2.9
	c-0.1,0.2-0.3,0.4-0.6,0.6l-10.1,6.8c-0.9,0.6-2.2,0.4-2.9-0.5c-0.1-0.2-0.3-0.5-0.3-0.7l-2.1,1.5c-2,1.3-2.5,4-1.2,6l0,0l30.8,45.4
	c1.3,2,4,2.5,6,1.2l0,0l0,0l17.7-12c2-1.3,2.5-4,1.2-6l0,0l-30.8-45.4C486.2,352.3,483.5,351.8,481.5,353.2L481.5,353.2L481.5,353.2
	z"/>
</svg>
